<?xml version="1.0" encoding="UTF-8"?>
<svg id="_图层_1" data-name="图层_1" xmlns="http://www.w3.org/2000/svg" version="1.1" viewBox="0 0 1000 1000">
  <!-- Generator: Adobe Illustrator 30.2.1, SVG Export Plug-In . SVG Version: 2.1.1 Build 1)  -->
  <defs>
    <style>
      .st0 {
        fill-rule: evenodd;
      }

      .st0, .st1 {
        fill: #9e7f63;
      }
    </style>
  </defs>
  <polygon class="st1" points="301.69 528.18 301.69 439.09 211.68 439.09 206.17 461.13 279.65 461.13 279.65 506.14 279.65 528.18 301.69 528.18"/>
  <path class="st1" d="M240.52,538.2c-7.88,0-15.62,2.73-21.74,7.72l-32.07,24.85c-1.68-.99-2.81-2.84-2.81-4.93v-37.66h81.98l13.78-22.04h-95.75v-11.02h82.31v-22.04h-82.31v-11.94l-5.51-21.13h-16.53v125.84c0,15.32,12.46,27.78,27.78,27.78h3.91l39.13-31.74c2.2-1.79,5.01-2.78,7.85-2.78,3.31,0,6.56,1.35,8.87,3.72l32.49,30.81h17.94l4.24-8.51-38.99-36.65c-6.45-6.5-15.38-10.25-24.55-10.25Z"/>
  <polygon class="st1" points="207.23 446.44 212.74 421.68 176.85 421.68 182.36 446.44 207.23 446.44"/>
  <path class="st1" d="M810.18,559.75l-12.6-91.71h-22.23l12.97,94.68c2.29,16.5,20.4,29.1,36.6,30.81l3.72-8.3v-13.53c-7.55,0-17.72-6.58-18.46-11.97Z"/>
  <path class="st1" d="M689.41,556.47c-1.11,8.7-8.55,15.26-17.32,15.26v22.04c19.84,0,36.69-14.84,39.19-34.52l11.59-91.2-22.7,3.79-10.76,84.64Z"/>
  <path class="st1" d="M515.52,458.38c0,7.06-10.83,16.81-18.15,21.17l5.62,9.48,5.6,9.49c.76-.45,3.02-1.83,5.96-4v99.1h22.04v-110.68h-9.45c5.66-6.62,10.42-15,10.42-24.57v-36.7h-22.04v36.7Z"/>
  <polygon class="st1" points="614.48 565.46 614.48 552.82 649.02 552.82 649.02 530.77 614.48 530.77 614.48 510.5 588.4 510.5 588.4 530.77 553.85 530.77 553.85 552.82 588.4 552.82 588.4 571.71 548.39 571.71 548.39 593.76 649.91 593.76 654.48 583.59 654.48 571.71 611.67 571.71 614.48 565.46"/>
  <polygon class="st1" points="548.39 482.95 548.39 504.99 649.96 504.99 654.48 494.94 654.48 482.95 611.62 482.95 614.48 476.6 614.48 463.49 649.02 463.49 649.02 441.45 614.48 441.45 614.48 421.68 588.4 421.68 588.4 441.45 553.85 441.45 553.85 463.49 588.4 463.49 588.4 482.95 548.39 482.95"/>
  <path class="st1" d="M418.51,421.79h-24.42l-47.38,14.64c-7.67,2.37-15.64,3.57-23.66,3.57v22.04h3.06c8.02,0,16-1.2,23.66-3.57l47.38-14.64h18.27l48.8,15.28c6.22,1.95,12.71,2.94,19.23,2.94h3.09v-22.04c-6.52,0-13.01-.99-19.23-2.94l-48.8-15.28Z"/>
  <polygon class="st1" points="412.62 473.75 409.28 479.33 401.54 479.33 398.2 473.75 380.71 473.75 389.56 486.26 380.77 499 398.98 499 401.6 493.11 408.98 493.11 411.68 499 430.4 499 424.7 486.55 430.57 473.75 412.62 473.75"/>
  <path class="st1" d="M464.27,527.04h-72.55l2.02-6.91h44.34l13.78-19.29h-20.62v-.02h-57.84v-.02h-13.22v-32.01h-19.29v31.99c0,10.67,8.69,19.35,19.36,19.35h10.51l-2.02,6.91h-24.11c-10.63,0-19.29,8.64-19.29,19.29v47.29h18.28l3.76-8.39v-36.15h14.88l-1.66,5.63c-2.08,7.08-.74,14.53,3.68,20.43,4.42,5.91,11.19,9.3,18.56,9.3h49.81s18.28,0,18.28,0l-5.51-27.97h-14.87v7.44h-47.94c-.14,0-.57,0-.92-.45-.33-.45-.21-.87-.18-1.01l3.72-13.37h65.24l13.78-22.03v40.86c0,8.24-2.78,16.34-7.85,22.84l-2.31,3h26.26c3.89-8.02,5.95-16.89,5.95-25.85v-40.86h-22.04,0Z"/>
  <polygon class="st1" points="471.16 512.22 471.16 467.78 451.87 467.78 451.87 500.84 451.87 520.13 466.79 520.13 471.16 512.22"/>
  <polygon class="st1" points="385.7 458.15 365.76 458.15 365.76 471.92 385.7 471.92 397.12 471.92 413.71 471.92 434.52 471.92 445.08 471.92 445.08 458.15 434.52 458.15 421.96 458.15 419.2 458.15 421.95 449.66 388.89 449.66 391.64 458.15 388.89 458.15 385.7 458.15"/>
  <polygon class="st1" points="826.08 463.49 826.08 441.44 759.58 441.44 759.58 421.68 737.54 421.68 737.54 441.44 675.94 441.44 675.94 463.49 737.53 463.49 737.53 593.62 755.83 593.62 759.58 585.24 759.58 463.49 826.08 463.49"/>
  <path class="st0" d="M826.19,406.23c6.66,0,11.96,5.18,11.96,11.8s-5.3,11.87-12.04,11.87-12.11-5.25-12.11-11.87,5.37-11.8,12.11-11.8h.07ZM826.04,408.61c-5.09,0-9.03,4.24-9.03,9.43s3.94,9.43,9.17,9.43c5.09.07,8.96-4.17,8.96-9.35s-3.87-9.5-9.03-9.5h-.07ZM824.25,424.15h-2.72v-11.8c1.07-.14,2.58-.36,4.51-.36,2.22,0,3.22.36,4.01.94.72.5,1.22,1.37,1.22,2.52,0,1.44-1.07,2.37-2.44,2.81v.14c1.15.36,1.72,1.29,2.08,2.88.36,1.8.64,2.45.86,2.88h-2.87c-.36-.43-.57-1.44-.93-2.88-.21-1.22-.93-1.8-2.44-1.8h-1.29v4.68ZM824.32,417.53h1.29c1.5,0,2.72-.5,2.72-1.73,0-1.08-.79-1.8-2.51-1.8-.72,0-1.22.07-1.5.14v3.38Z"/>
</svg>